/* XPM */
static char * taskbuttonactive_xpm[] = {
"3 30 25 1",
" 	c None",
".	c #717171",
"+	c #AFAFAF",
"@	c #B6B6B6",
"#	c #BEBEBE",
"$	c #C0C0C0",
"%	c #BFBFBF",
"&	c #BCBCBC",
"*	c #BBBBBB",
"=	c #BABABA",
"-	c #B9B9B9",
";	c #B7B7B7",
">	c #B4B4B4",
",	c #B3B3B3",
"'	c #B1B1B1",
")	c #AEAEAE",
"!	c #ACACAC",
"~	c #ABABAB",
"{	c #AAAAAA",
"]	c #A9A9A9",
"^	c #A7A7A7",
"/	c #A6A6A6",
"(	c #A4A4A4",
"_	c #A2A2A2",
":	c #A0A0A0",
"...",
"+++",
"@@@",
"###",
"$$$",
"%%%",
"###",
"&&&",
"***",
"===",
"---",
";;;",
"@@@",
"@@@",
">>>",
",,,",
"'''",
"+++",
")))",
"!!!",
"~~~",
"{{{",
"]]]",
"^^^",
"///",
"(((",
"___",
"___",
":::",
"..."};
