/* XPM */
static char * maximize_pressed_xpm[] = {
"17 18 8 1",
" 	c None",
".	c #AEAEAE",
"+	c #B1B1B1",
"@	c #B4B4B4",
"#	c #B6B6B6",
"$	c #212121",
"%	c #ABABAB",
"&	c #A9A9A9",
"                 ",
"  .............  ",
" +@@##########@@ ",
" +@@@########@@@ ",
" +@@@@#####@#@@@ ",
" .@@@@@@@@@@@@@+ ",
" .@@@@##$##@@@@@ ",
" .++@@@#$#@@@+++ ",
" .++@$$$$$$$@+++ ",
" .++@$$$$$$$@+++ ",
" .+++@@@$@@@+++. ",
" %..+++@$@++++.. ",
" %...+++++++.... ",
" &....+++++....% ",
" &%...........%% ",
" &%%%........%%% ",
"  &&&&&%&&&&&&&  ",
"                 "};
