/* XPM */
static char * minimizeA_xpm[] = {
"20 42 40 1",
" 	c None",
".	c #5682B1",
"+	c #5A87B5",
"@	c #5986B5",
"#	c #EEEEEE",
"$	c #5986B4",
"%	c #DADADA",
"&	c #5885B3",
"*	c #D8D8D8",
"=	c #5985B3",
"-	c #5884B2",
";	c #5884B3",
">	c #5783B2",
",	c #D6D6D6",
"'	c #5783B1",
")	c #5582B0",
"!	c #212121",
"~	c #5683B1",
"{	c #5581AF",
"]	c #D3D3D3",
"^	c #686868",
"/	c #5580AF",
"(	c #ECECEC",
"_	c #5380AE",
":	c #D1D1D1",
"<	c #5481AE",
"[	c #537FAD",
"}	c #537EAD",
"|	c #CECECE",
"1	c #5380AD",
"2	c #527DAB",
"3	c #527FAD",
"4	c #517DAB",
"5	c #527DAC",
"6	c #AEAEAE",
"7	c #B1B1B1",
"8	c #B4B4B4",
"9	c #B6B6B6",
"0	c #ABABAB",
"a	c #A9A9A9",
"....................",
"..++++@@+++@@+@@+++.",
"..++#############++.",
"..$%%%%%%%%%%%%%%%+.",
"..&%%%%%%%%%%%%%%%$.",
"..&***************=.",
"..-***************;.",
"..>,,,,,,,,,,,,,,,;.",
"...,,,,,,,,,,,,,,,'.",
"..),,,,!!!!!!!,,,,~.",
"..{]]]]^^^^^^^]]]]).",
"../]]]](((((((]]]]{.",
".._:::::::::::::::<.",
"..[:::::::::::::::_.",
"..}::||:|:||:|::|:1.",
"..2|||||||||||||||3.",
"..4|||||||||||||||5.",
"..44|||||||||||||44.",
"..44424444244244444.",
"....................",
"24444244244442442444",
"&&&&&&&&&&&&&&&&&&&&",
"&&++++@@+++@@+@@+++&",
"&&++6666666666666++&",
"&&$788999999999988+&",
"&&&788899999999888$&",
"&&&788889999989888=&",
"&&-688888888888887;&",
"&&>688889999988888;&",
"&&.677888999888777'&",
"&&)6778!!!!!!!8777~&",
"&&{6778!!!!!!!8777)&",
"&&/677788888887776{&",
"&&_066777888777766<&",
"&&[066677777776666_&",
"&&}a666677777666601&",
"&&2a066666666666003&",
"&&4a000666666660005&",
"&&44aaaaa0aaaaaaa44&",
"&&44424444244244444&",
"&&&&&&&&&&&&&&&&&&&&",
"24444244244442442444"};
