/* XPM */
static char * closeI_xpm[] = {
"21 42 100 2",
"  	c None",
". 	c #7193B7",
"+ 	c #7294B7",
"@ 	c #7194B7",
"# 	c #7094B6",
"$ 	c #6F92B6",
"% 	c #7093B6",
"& 	c #6F93B6",
"* 	c #D6D6D6",
"= 	c #7092B6",
"- 	c #6E91B5",
"; 	c #C8C8C8",
"> 	c #6C90B5",
", 	c #6C8FB5",
"' 	c #6C90B4",
") 	c #C7C7C7",
"! 	c #6B8FB4",
"~ 	c #6B8EB4",
"{ 	c #6A8FB4",
"] 	c #C6C6C6",
"^ 	c #6A8EB4",
"/ 	c #698DB3",
"( 	c #698EB3",
"_ 	c #C4C4C4",
": 	c #678DB2",
"< 	c #678CB2",
"[ 	c #1D1D1D",
"} 	c #658BB1",
"| 	c #658BB2",
"1 	c #648AB0",
"2 	c #648AB1",
"3 	c #5C5C5C",
"4 	c #638AB1",
"5 	c #6289B0",
"6 	c #6288B0",
"7 	c #C2C2C2",
"8 	c #6088AF",
"9 	c #6187AF",
"0 	c #C0C0C0",
"a 	c #6087AF",
"b 	c #5E86AF",
"c 	c #5F87AF",
"d 	c #5F86AF",
"e 	c #5D85AE",
"f 	c #5D85AD",
"g 	c #D4D4D4",
"h 	c #D0D0D0",
"i 	c #5D84AE",
"j 	c #5B84AD",
"k 	c #5C84AD",
"l 	c #5B83AD",
"m 	c #5A83AD",
"n 	c #5A83AC",
"o 	c #5A82AC",
"p 	c #BFBFBF",
"q 	c #5983AC",
"r 	c #5882AB",
"s 	c #5881AB",
"t 	c #5680AB",
"u 	c #557FAB",
"v 	c #557FAA",
"w 	c #557EAA",
"x 	c #537EAA",
"y 	c #537DA9",
"z 	c #537EA9",
"A 	c #517DA9",
"B 	c #517CA8",
"C 	c #517CA9",
"D 	c #5682B1",
"E 	c #5A87B5",
"F 	c #5986B5",
"G 	c #AEAEAE",
"H 	c #5986B4",
"I 	c #B1B1B1",
"J 	c #B4B4B4",
"K 	c #B6B6B6",
"L 	c #5885B3",
"M 	c #5985B3",
"N 	c #5884B2",
"O 	c #5884B3",
"P 	c #5783B2",
"Q 	c #212121",
"R 	c #5783B1",
"S 	c #5582B0",
"T 	c #5683B1",
"U 	c #5581AF",
"V 	c #5580AF",
"W 	c #5380AE",
"X 	c #ABABAB",
"Y 	c #5481AE",
"Z 	c #537FAD",
"` 	c #537EAD",
" .	c #A9A9A9",
"..	c #5380AD",
"+.	c #527DAB",
"@.	c #527FAD",
"#.	c #517DAB",
"$.	c #527DAC",
"%.	c #486E98",
"&.	c #496E98",
". + . + . + @ . + + @ . + @ . + + + . . + ",
". . . . @ . # . . . # . . # . . . . @ @ . ",
"$ % & . * * * * * * * * * * * * * . = & % ",
"- - - ; ; ; ; ; ; ; ; ; ; ; ; ; ; ; - - - ",
"> , ' ) ) ) ) ) ) ) ) ) ) ) ) ) ) ) > ' , ",
"! ~ { ] ] ] ] ] ] ] ] ] ] ] ] ] ] ] ^ { ~ ",
"/ / ( ] ] ] ] ] ] _ _ _ ] ] ] ] ] ] / ( / ",
": < : _ _ _ _ [ [ _ _ _ [ [ _ _ _ _ < : < ",
"} } } _ _ _ _ _ [ [ [ [ [ _ _ _ _ _ | } } ",
"1 2 2 _ _ _ _ _ _ 3 3 3 _ _ _ _ _ _ 4 2 2 ",
"5 5 6 7 7 7 7 7 7 3 3 3 7 7 7 7 7 7 5 6 5 ",
"8 8 9 0 0 0 0 0 [ 3 3 3 [ 0 0 0 0 0 a 9 8 ",
"b c d 0 0 0 0 [ 3 _ _ _ 3 [ 0 0 0 0 b d c ",
"e f e 0 0 0 0 g h _ _ _ h g 0 0 0 0 i e f ",
"j j k 0 0 0 0 0 0 7 7 7 0 0 0 0 0 0 l k j ",
"m n o p p p p p p 0 0 0 p p p p p p q o n ",
"r s s p p p p p p p p p p p p p p p r s s ",
"t t t u p p p p p p p p p p p p p u t t t ",
"v v w u v v v u v u v v v u v v v w v w v ",
"x y z z y x y z y z y x y z y x y z y z y ",
"A B A C C A B C C C C A B C C A B A C A B ",
"D D D D D D D D D D D D D D D D D D D D D ",
"D D E E E E F F E E E F F E F F E E E D D ",
"D D E E G G G G G G G G G G G G G E E D D ",
"D D H I J J K K K K K K K K K K J J E D D ",
"D D L I J J J K K K K K K K K J J J H D D ",
"D D L I J J J J K K K K K J K J J J M D D ",
"D D N G J J J J J J J J J J J J J I O D D ",
"D D P G J J J Q Q K K K Q Q J J J J O D D ",
"D D D G I I J J Q Q Q Q Q J J I I I R D D ",
"D D S G I I J J J Q Q Q K J J I I I T D D ",
"D D U G I I J J J Q Q Q K J J I I I S D D ",
"D D V G I I I J Q Q Q Q Q J I I I G U D D ",
"D D W X G G I Q Q J J J Q Q I I G G Y D D ",
"D D Z X G G G I I I I I I I G G G G W D D ",
"D D `  .G G G G I I I I I G G G G X ..D D ",
"D D +. .X G G G G G G G G G G G X X @.D D ",
"D D #. .X X X G G G G G G G G X X X $.D D ",
"D D #.#. . . . . .X  . . . . . . .#.#.D D ",
"D D #.#.#.+.#.#.#.#.+.#.#.+.#.#.#.#.#.D D ",
"D D D D D D D D D D D D D D D D D D D D D ",
"%.%.&.%.%.&.%.%.%.%.&.%.&.%.%.%.%.%.%.%.%."};
