/* XPM */
static char * closeO_xpm[] = {
"21 42 43 1",
" 	c None",
".	c #5580AF",
"+	c #5A87B5",
"@	c #5986B5",
"#	c #F2F2F2",
"$	c #5986B4",
"%	c #E2E2E2",
"&	c #5885B3",
"*	c #E1E1E1",
"=	c #E0E0E0",
"-	c #5985B3",
";	c #5884B2",
">	c #5884B3",
",	c #5783B2",
"'	c #DDDDDD",
")	c #4B4B4B",
"!	c #5682B1",
"~	c #858585",
"{	c #5783B1",
"]	c #5582B0",
"^	c #5683B1",
"/	c #5581AF",
"(	c #DBDBDB",
"_	c #D9D9D9",
":	c #5380AE",
"<	c #5481AE",
"[	c #537FAD",
"}	c #F0F0F0",
"|	c #ECECEC",
"1	c #537EAD",
"2	c #5380AD",
"3	c #527DAB",
"4	c #D8D8D8",
"5	c #527FAD",
"6	c #517DAB",
"7	c #527DAC",
"8	c #AEAEAE",
"9	c #B1B1B1",
"0	c #B4B4B4",
"a	c #B6B6B6",
"b	c #212121",
"c	c #ABABAB",
"d	c #A9A9A9",
".....................",
"..++++@@+++@@+@@+++..",
"..++#############++..",
"..$%%%%%%%%%%%%%%%+..",
"..&***************$..",
"..&===============-..",
"..;===============>..",
"..,''''))'''))''''>..",
"..!'''''))~))'''''{..",
"..]''''''~~~''''''^..",
"../((((((~~~((((((]..",
"..._____)~~~)_____/..",
"..:____)~'''~)____<..",
"..[____}|'''|}____:..",
"..1_______________2..",
"..34444444444444445..",
"..64444444444444447..",
"..66444444444444466..",
"..66636666366366666..",
".....................",
"663666663666636636666",
",,,,,,,,,,,,,,,,,,,,,",
",,++++@@+++@@+@@+++,,",
",,++8888888888888++,,",
",,$900aaaaaaaaaa00+,,",
",,&9000aaaaaaaa000$,,",
",,&90000aaaaa0a000-,,",
",,;800000000000009>,,",
",,,8000bbaaabb0000>,,",
",,!89900bbbbb00999{,,",
",,]899000bbba00999^,,",
",,/899000bbba00999],,",
",,.89990bbbbb09998/,,",
",,:c889bb000bb9988<,,",
",,[c88899999998888:,,",
",,1d8888999998888c2,,",
",,3dc88888888888cc5,,",
",,6dccc88888888ccc7,,",
",,66dddddcddddddd66,,",
",,66636666366366666,,",
",,,,,,,,,,,,,,,,,,,,,",
"666636666636666366666"};
