/* XPM */
static char * restoreI_xpm[] = {
"20 42 68 1",
" 	c None",
".	c #7294B7",
"+	c #7193B7",
"@	c #7194B7",
"#	c #D2D2D2",
"$	c #7093B6",
"%	c #6F93B6",
"&	c #C1C1C1",
"*	c #6E91B5",
"=	c #6C8FB5",
"-	c #6C90B4",
";	c #BFBFBF",
">	c #6B8EB4",
",	c #6A8FB4",
"'	c #1D1D1D",
")	c #698DB3",
"!	c #698EB3",
"~	c #BDBDBD",
"{	c #5C5C5C",
"]	c #678CB2",
"^	c #678DB2",
"/	c #658BB1",
"(	c #648AB1",
"_	c #BABABA",
":	c #6289B0",
"<	c #6288B0",
"[	c #D0D0D0",
"}	c #6088AF",
"|	c #6187AF",
"1	c #B9B9B9",
"2	c #5F87AF",
"3	c #5F86AF",
"4	c #797979",
"5	c #5D85AD",
"6	c #5D85AE",
"7	c #B7B7B7",
"8	c #5B84AD",
"9	c #5C84AD",
"0	c #5A83AC",
"a	c #5A82AC",
"b	c #5881AB",
"c	c #557FAA",
"d	c #5680AB",
"e	c #557EAA",
"f	c #537DA9",
"g	c #537EA9",
"h	c #5783B2",
"i	c #5A87B5",
"j	c #5986B5",
"k	c #AEAEAE",
"l	c #5986B4",
"m	c #B1B1B1",
"n	c #B4B4B4",
"o	c #B6B6B6",
"p	c #5885B3",
"q	c #5884B2",
"r	c #212121",
"s	c #5682B1",
"t	c #5582B0",
"u	c #5581AF",
"v	c #5580AF",
"w	c #5380AE",
"x	c #ABABAB",
"y	c #537FAD",
"z	c #537EAD",
"A	c #A9A9A9",
"B	c #527DAB",
"C	c #517DAB",
".++.++.++.++.++.++.+",
".++.++.++.++.++.++.+",
"+@@+#############++@",
"$%%&&&&&&&&&&&&&&&$%",
"***&&&&&&&&&&&&&&&**",
"=--;;;;;;;;;;;;;;;=-",
">,,;;;;;;;';;;;;;;>,",
")!!~~~~~~~{~~~~~~~)!",
"]^^~~~~~~~{~~~~~~~]^",
"///~~~~'''{'''~~~~//",
"(((____{{{{{{{____((",
":<<____[[[{[[[____:<",
"}||1111111{1111111}|",
"23311111114111111123",
"5661177171[117117156",
"89977777777777777789",
"0aa7777777777777770a",
"bbbc7777777777777cbb",
"ddccecececcecececedd",
"ceccecececcecececece",
"fgffgfgfgffgfgfgfgfg",
".+hhhhhhhhhhhhhhhh.+",
".+iiiijjiiijjijjii+@",
"+@iikkkkkkkkkkkkki$%",
"$%lmnnoooooooooonn**",
"**pmnnnoooooooonnn=-",
"=-pmnnnnooooononnn>,",
">,qknnnnnnnnnnnnnm)!",
")!hknnnnooroonnnnn]^",
"]^skmmnnnoronnnmmm//",
"//tkmmnrrrrrrrnmmm((",
"((ukmmnrrrrrrrnmmm:<",
":<vkmmmnnnrnnnmmmk}|",
"}|wxkkmmmnrnmmmmkk23",
"23yxkkkmmmmmmmkkkk56",
"56zAkkkkmmmmmkkkkx89",
"89BAxkkkkkkkkkkkxx0a",
"0aCAxxxkkkkkkkkxxxbb",
"bbCCAAAAAxAAAAAAACdd",
"ddCCCBCCCCBCCBCCCCce",
"ceccecececcccececece",
"fgffgfgfgffffgfgfgfg"};
