/* XPM */
static char * menusel_xpm[] = {
"2 27 28 1",
" 	c None",
".	c #2D72BD",
"+	c #7CA6FE",
"@	c #78A3FA",
"#	c #77A3FA",
"$	c #75A1F9",
"%	c #74A0F9",
"&	c #729FF9",
"*	c #709DF8",
"=	c #6F9CF7",
"-	c #6D9BF7",
";	c #6C9AF6",
">	c #6A99F6",
",	c #6998F5",
"'	c #6897F5",
")	c #6796F4",
"!	c #6695F4",
"~	c #6494F3",
"{	c #6393F3",
"]	c #6192F3",
"^	c #6091F2",
"/	c #5E8FF1",
"(	c #5C8EF1",
"_	c #5B8DF0",
":	c #598BF0",
"<	c #588BEF",
"[	c #598BF1",
"}	c #2C72BD",
"..",
"++",
"@@",
"##",
"$$",
"%%",
"&&",
"**",
"==",
"--",
";;",
">>",
",,",
"''",
"))",
"!!",
"~~",
"{{",
"]]",
"^^",
"//",
"((",
"__",
"::",
"<<",
"[[",
"}}"};
