/* XPM */
static char * minimizeI_xpm[] = {
"20 42 77 1",
" 	c None",
".	c #7294B7",
"+	c #7193B7",
"@	c #7194B7",
"#	c #D2D2D2",
"$	c #7093B6",
"%	c #6F93B6",
"&	c #C1C1C1",
"*	c #6E91B5",
"=	c #6C8FB5",
"-	c #6C90B4",
";	c #BFBFBF",
">	c #6B8EB4",
",	c #6A8FB4",
"'	c #698DB3",
")	c #698EB3",
"!	c #BDBDBD",
"~	c #678CB2",
"{	c #678DB2",
"]	c #658BB1",
"^	c #1D1D1D",
"/	c #648AB1",
"(	c #BABABA",
"_	c #5C5C5C",
":	c #6289B0",
"<	c #6288B0",
"[	c #D0D0D0",
"}	c #6088AF",
"|	c #6187AF",
"1	c #B9B9B9",
"2	c #5F87AF",
"3	c #5F86AF",
"4	c #5D85AD",
"5	c #5D85AE",
"6	c #B7B7B7",
"7	c #5B84AD",
"8	c #5C84AD",
"9	c #5A83AC",
"0	c #5A82AC",
"a	c #5881AB",
"b	c #557FAA",
"c	c #5680AB",
"d	c #557EAA",
"e	c #537DA9",
"f	c #537EA9",
"g	c #5884B2",
"h	c #5A87B5",
"i	c #5986B5",
"j	c #AEAEAE",
"k	c #5986B4",
"l	c #B1B1B1",
"m	c #B4B4B4",
"n	c #B6B6B6",
"o	c #5885B3",
"p	c #5985B3",
"q	c #5884B3",
"r	c #5783B2",
"s	c #5682B1",
"t	c #5783B1",
"u	c #5582B0",
"v	c #212121",
"w	c #5683B1",
"x	c #5581AF",
"y	c #5580AF",
"z	c #5380AE",
"A	c #ABABAB",
"B	c #5481AE",
"C	c #537FAD",
"D	c #537EAD",
"E	c #A9A9A9",
"F	c #5380AD",
"G	c #527DAB",
"H	c #527FAD",
"I	c #517DAB",
"J	c #527DAC",
"K	c #496E98",
"L	c #486E98",
".++.++.++.++.++.++..",
".++.++.++.++.++.++..",
"+@@+#############++@",
"$%%&&&&&&&&&&&&&&&$%",
"***&&&&&&&&&&&&&&&**",
"=--;;;;;;;;;;;;;;;=-",
">,,;;;;;;;;;;;;;;;>,",
"'))!!!!!!!!!!!!!!!')",
"~{{!!!!!!!!!!!!!!!~{",
"]]]!!!!^^^^^^^!!!!]]",
"///((((_______((((//",
":<<(((([[[[[[[((((:<",
"}||111111111111111}|",
"23311111111111111123",
"45511661616616116145",
"78866666666666666678",
"90066666666666666690",
"aaab6666666666666baa",
"ccbbdbdbdbbdbdbdbdcc",
"bdbbdbdbdbbdbdbdbdbd",
"efeefefefeefefefefef",
"gggggggggggggggggggg",
"gghhhhiihhhiihiihhhg",
"gghhjjjjjjjjjjjjjhhg",
"ggklmmnnnnnnnnnnmmhg",
"ggolmmmnnnnnnnnmmmkg",
"ggolmmmmnnnnnmnmmmpg",
"gggjmmmmmmmmmmmmmlqg",
"ggrjmmmmnnnnnmmmmmqg",
"ggsjllmmmnnnmmmllltg",
"ggujllmvvvvvvvmlllwg",
"ggxjllmvvvvvvvmlllug",
"ggyjlllmmmmmmmllljxg",
"ggzAjjlllmmmlllljjBg",
"ggCAjjjllllllljjjjzg",
"ggDEjjjjllllljjjjAFg",
"ggGEAjjjjjjjjjjjAAHg",
"ggIEAAAjjjjjjjjAAAJg",
"ggIIEEEEEAEEEEEEEIIg",
"ggIIIGIIIIGIIGIIIIIg",
"gggggggggggggggggggg",
"KLLLLKLLKLLLLKLLKLLL"};
