/* XPM */
static char * maximizeO_xpm[] = {
"20 42 42 1",
" 	c None",
".	c #537EAD",
"+	c #5A87B5",
"@	c #5986B5",
"#	c #F1F1F1",
"$	c #5986B4",
"%	c #E1E1E1",
"&	c #5885B3",
"*	c #E0E0E0",
"=	c #5985B3",
"-	c #5884B2",
";	c #4D4D4D",
">	c #5884B3",
",	c #5783B2",
"'	c #DEDEDE",
")	c #868686",
"!	c #5682B1",
"~	c #5783B1",
"{	c #5582B0",
"]	c #5683B1",
"^	c #5581AF",
"/	c #DCDCDC",
"(	c #5580AF",
"_	c #F0F0F0",
":	c #5380AE",
"<	c #DADADA",
"[	c #5481AE",
"}	c #537FAD",
"|	c #A0A0A0",
"1	c #D8D8D8",
"2	c #5380AD",
"3	c #527DAB",
"4	c #527FAD",
"5	c #517DAB",
"6	c #527DAC",
"7	c #AEAEAE",
"8	c #B1B1B1",
"9	c #B4B4B4",
"0	c #B6B6B6",
"a	c #212121",
"b	c #ABABAB",
"c	c #A9A9A9",
"....................",
"..++++@@+++@@+@@+++.",
"..++#############++.",
"..$%%%%%%%%%%%%%%%+.",
"..&%%%%%%%%%%%%%%%$.",
"..&***************=.",
"..-*******;*******>.",
"..,''''''')'''''''>.",
"..!''''''')'''''''~.",
"..{'''';;;);;;''''].",
"..^////)))))))////{.",
"..(////___)___////^.",
"..:<<<<<<<)<<<<<<<[.",
"..}<<<<<<<|<<<<<<<:.",
"...<<11<1<_<<1<<1<2.",
"..31111111111111114.",
"..51111111111111116.",
"..55111111111111155.",
"..55535555355355555.",
"....................",
"53555535535555355355",
"{{{{{{{{{{{{{{{{{{{{",
"{{++++@@+++@@+@@+++{",
"{{++7777777777777++{",
"{{$899000000000099+{",
"{{&899900000000999${",
"{{&899990000090999={",
"{{-799999999999998>{",
"{{,7999900a0099999>{",
"{{!7889990a0999888~{",
"{{{7889aaaaaaa9888]{",
"{{^7889aaaaaaa9888{{",
"{{(7888999a9998887^{",
"{{:b778889a9888877[{",
"{{}b77788888887777:{",
"{{.c7777888887777b2{",
"{{3cb77777777777bb4{",
"{{5cbbb77777777bbb6{",
"{{55cccccbccccccc55{",
"{{55535555355355555{",
"{{{{{{{{{{{{{{{{{{{{",
"53555535535555355355"};
