/* XPM */
static char * titleAB_xpm[] = {
"5 24 57 1",
" 	c None",
".	c #5C89B7",
"+	c #5C89B8",
"@	c #5C88B7",
"#	c #5B88B7",
"$	c #5B88B6",
"%	c #5A87B6",
"&	c #5B87B6",
"*	c #5A87B5",
"=	c #5986B5",
"-	c #5986B4",
";	c #5886B4",
">	c #5985B4",
",	c #5885B4",
"'	c #5885B3",
")	c #5985B3",
"!	c #5884B3",
"~	c #5883B2",
"{	c #5784B3",
"]	c #5884B2",
"^	c #5783B1",
"/	c #5783B2",
"(	c #5682B0",
"_	c #5683B1",
":	c #5682B1",
"<	c #5582B0",
"[	c #5581AF",
"}	c #5581B0",
"|	c #5480AF",
"1	c #5581AE",
"2	c #5580AF",
"3	c #5481AE",
"4	c #5380AE",
"5	c #547FAE",
"6	c #547FAD",
"7	c #537FAD",
"8	c #5380AD",
"9	c #527FAC",
"0	c #537EAD",
"a	c #527FAD",
"b	c #527EAB",
"c	c #527EAC",
"d	c #527DAB",
"e	c #527DAC",
"f	c #517DAB",
"g	c #517CAA",
"h	c #517DAA",
"i	c #507CA9",
"j	c #507CAA",
"k	c #507BAA",
"l	c #507BA8",
"m	c #507BA9",
"n	c #4F7CA9",
"o	c #4F7AA8",
"p	c #4F7BA8",
"q	c #4E7BA8",
"r	c #4E7AA8",
"...+@",
"...+@",
"...+@",
"#$$$$",
"%%&$%",
"*==**",
"==---",
";>,')",
"'!!'!",
"~{!]!",
"^^^/^",
"(_::_",
"(<(<<",
"[}[[[",
"|1|23",
"44544",
"67878",
"9070a",
"bcbde",
"dffff",
"ggghh",
"ijjki",
"llmln",
"opoqr"};
