/* XPM */
static char * titleIB_xpm[] = {
"5 24 66 1",
" 	c None",
".	c #7294B7",
"+	c #7194B7",
"@	c #7193B7",
"#	c #7094B6",
"$	c #6F92B6",
"%	c #7092B6",
"&	c #7093B6",
"*	c #6F93B6",
"=	c #6E91B6",
"-	c #6E91B5",
";	c #6C90B4",
">	c #6C90B5",
",	c #6C8FB5",
"'	c #6A8FB4",
")	c #6A8EB4",
"!	c #6B8FB4",
"~	c #6B8EB4",
"{	c #698DB3",
"]	c #698EB3",
"^	c #678CB2",
"/	c #678DB2",
"(	c #668BB1",
"_	c #658BB2",
":	c #658BB1",
"<	c #648AB0",
"[	c #638AB1",
"}	c #648AB1",
"|	c #6288B0",
"1	c #6289B0",
"2	c #6087B0",
"3	c #6087AF",
"4	c #6088AF",
"5	c #6187AF",
"6	c #5E86AF",
"7	c #5F87AF",
"8	c #5F86AF",
"9	c #5D85AE",
"0	c #5D84AE",
"a	c #5D85AD",
"b	c #5C84AD",
"c	c #5B83AD",
"d	c #5B84AD",
"e	c #5A82AC",
"f	c #5983AC",
"g	c #5A83AD",
"h	c #5A83AC",
"i	c #5881AC",
"j	c #5882AB",
"k	c #5881AB",
"l	c #5680AA",
"m	c #5680AB",
"n	c #557FAB",
"o	c #557FAA",
"p	c #557EAA",
"q	c #537EA9",
"r	c #537DA9",
"s	c #537EAA",
"t	c #517CA9",
"u	c #517DA9",
"v	c #517CA8",
"w	c #4F7BA7",
"x	c #507BA8",
"y	c #4F7BA8",
"z	c #507BA7",
"A	c #4E7AA7",
".+@.@",
".+@.@",
"@#@@+",
"$%$&*",
"=----",
";>>,;",
"')!~'",
"{{{{]",
"^^/^/",
"(_:::",
"<[<}}",
"|111|",
"23445",
"66678",
"909a9",
"bcddb",
"efghe",
"ijjkk",
"lmmmm",
"nooop",
"qrsrq",
"ttuvu",
"wxxyz",
"AAAAA"};
