/* XPM */
static char * close_inactive_xpm[] = {
"17 18 13 1",
" 	c None",
".	c #D6D6D6",
"+	c #C8C8C8",
"@	c #C7C7C7",
"#	c #C6C6C6",
"$	c #C4C4C4",
"%	c #1D1D1D",
"&	c #5C5C5C",
"*	c #C2C2C2",
"=	c #C0C0C0",
"-	c #D4D4D4",
";	c #D0D0D0",
">	c #BFBFBF",
"                 ",
"  .............  ",
" +++++++++++++++ ",
" @@@@@@@@@@@@@@@ ",
" ############### ",
" ######$$$###### ",
" $$$$%%$$$%%$$$$ ",
" $$$$$%%%%%$$$$$ ",
" $$$$$$&&&$$$$$$ ",
" ******&&&****** ",
" =====%&&&%===== ",
" ====%&$$$&%==== ",
" ====-;$$$;-==== ",
" ======***====== ",
" >>>>>>===>>>>>> ",
" >>>>>>>>>>>>>>> ",
"  >>>>>>>>>>>>>  ",
"                 "};
