/* XPM */
static char * close_prelight_xpm[] = {
"17 18 13 1",
" 	c None",
".	c #F2F2F2",
"+	c #E2E2E2",
"@	c #E1E1E1",
"#	c #E0E0E0",
"$	c #DDDDDD",
"%	c #4B4B4B",
"&	c #858585",
"*	c #DBDBDB",
"=	c #D9D9D9",
"-	c #F0F0F0",
";	c #ECECEC",
">	c #D8D8D8",
"                 ",
"  .............  ",
" +++++++++++++++ ",
" @@@@@@@@@@@@@@@ ",
" ############### ",
" ############### ",
" $$$$%%$$$%%$$$$ ",
" $$$$$%%&%%$$$$$ ",
" $$$$$$&&&$$$$$$ ",
" ******&&&****** ",
" =====%&&&%===== ",
" ====%&$$$&%==== ",
" ====-;$$$;-==== ",
" =============== ",
" >>>>>>>>>>>>>>> ",
" >>>>>>>>>>>>>>> ",
"  >>>>>>>>>>>>>  ",
"                 "};
