/* XPM */
static char * hide_active_xpm[] = {
"17 18 11 1",
" 	c None",
".	c #EEEEEE",
"+	c #DADADA",
"@	c #D8D8D8",
"#	c #D6D6D6",
"$	c #212121",
"%	c #D3D3D3",
"&	c #686868",
"*	c #ECECEC",
"=	c #D1D1D1",
"-	c #CECECE",
"                 ",
"  .............  ",
" +++++++++++++++ ",
" +++++++++++++++ ",
" @@@@@@@@@@@@@@@ ",
" @@@@@@@@@@@@@@@ ",
" ############### ",
" ############### ",
" ####$$$$$$$#### ",
" %%%%&&&&&&&%%%% ",
" %%%%*******%%%% ",
" =============== ",
" =============== ",
" ==--=-=--=-==-= ",
" --------------- ",
" --------------- ",
"  -------------  ",
"                 "};
