/* XPM */
static char * left_inactive_xpm[] = {
"2 5 3 1",
" 	c None",
".	c #44709C",
"+	c #6381A7",
".+",
".+",
".+",
".+",
".+"};
