/* XPM */
static char * maximize_prelight_xpm[] = {
"17 18 12 1",
" 	c None",
".	c #F1F1F1",
"+	c #E1E1E1",
"@	c #E0E0E0",
"#	c #4D4D4D",
"$	c #DEDEDE",
"%	c #868686",
"&	c #DCDCDC",
"*	c #F0F0F0",
"=	c #DADADA",
"-	c #A0A0A0",
";	c #D8D8D8",
"                 ",
"  .............  ",
" +++++++++++++++ ",
" +++++++++++++++ ",
" @@@@@@@@@@@@@@@ ",
" @@@@@@@#@@@@@@@ ",
" $$$$$$$%$$$$$$$ ",
" $$$$$$$%$$$$$$$ ",
" $$$$###%###$$$$ ",
" &&&&%%%%%%%&&&& ",
" &&&&***%***&&&& ",
" =======%======= ",
" =======-======= ",
" ==;;=;=*==;==;= ",
" ;;;;;;;;;;;;;;; ",
" ;;;;;;;;;;;;;;; ",
"  ;;;;;;;;;;;;;  ",
"                 "};
