/* XPM */
static char * title_4_inactive_xpm[] = {
"5 24 24 1",
" 	c None",
".	c #44709C",
"+	c #6381A7",
"@	c #7C8EB0",
"#	c #778BB1",
"$	c #778AAE",
"%	c #7489AC",
"&	c #7289AD",
"*	c #7188AA",
"=	c #6F86A8",
"-	c #6E84A8",
";	c #6D83A8",
">	c #6C81A7",
",	c #6A80A5",
"'	c #687FA4",
")	c #677DA3",
"!	c #657CA2",
"~	c #647BA1",
"{	c #6279A0",
"]	c #60789F",
"^	c #5D779D",
"/	c #60779A",
"(	c #55749D",
"_	c #4571A0",
".....",
"+++++",
"@@@@@",
"#####",
"$$$$$",
"%%%%%",
"&&&&&",
"*****",
"=====",
"-----",
";;;;;",
">>>>>",
",,,,,",
"'''''",
")))))",
"!!!!!",
"~~~~~",
"{{{{{",
"{{{{{",
"]]]]]",
"^^^^^",
"/////",
"(((((",
"_____"};
