/* XPM */
static char * title_3_active_xpm[] = {
"5 24 23 1",
" 	c None",
".	c #6887BC",
"+	c #859ECE",
"@	c #7F9ACF",
"#	c #7F99CB",
"$	c #7B98C9",
"%	c #7797CA",
"&	c #7696C5",
"*	c #7493C3",
"=	c #7290C3",
"-	c #718FC3",
";	c #6F8DC1",
">	c #6D8BBF",
",	c #6A8ABD",
"'	c #6685BB",
")	c #6484B9",
"!	c #6182B7",
"~	c #6181B7",
"{	c #5E80B6",
"]	c #5B7FB3",
"^	c #5F7EB0",
"/	c #4F7AB3",
"(	c #3976B8",
".....",
".....",
"+++++",
"@@@@@",
"#####",
"$$$$$",
"%%%%%",
"&&&&&",
"*****",
"=====",
"-----",
";;;;;",
">>>>>",
",,,,,",
".....",
"'''''",
")))))",
"!!!!!",
"~~~~~",
"{{{{{",
"]]]]]",
"^^^^^",
"/////",
"((((("};
