/* XPM */
static char * taskbuttonactive_xpm[] = {
"3 30 27 1",
" 	c None",
".	c #7E7E7E",
"+	c #C5C5C5",
"@	c #CDCDCD",
"#	c #D5D5D5",
"$	c #D8D8D8",
"%	c #D6D6D6",
"&	c #D3D3D3",
"*	c #D2D2D2",
"=	c #D1D1D1",
"-	c #D0D0D0",
";	c #CECECE",
">	c #CCCCCC",
",	c #CACACA",
"'	c #C9C9C9",
")	c #C7C7C7",
"!	c #C4C4C4",
"~	c #C2C2C2",
"{	c #C0C0C0",
"]	c #BFBFBF",
"^	c #BDBDBD",
"/	c #BBBBBB",
"(	c #BABABA",
"_	c #B8B8B8",
":	c #B6B6B6",
"<	c #B5B5B5",
"[	c #B3B3B3",
"...",
"+++",
"@@@",
"###",
"$$$",
"%%%",
"###",
"&&&",
"***",
"===",
"---",
";;;",
"@@@",
">>>",
",,,",
"'''",
")))",
"+++",
"!!!",
"~~~",
"{{{",
"]]]",
"^^^",
"///",
"(((",
"___",
":::",
"<<<",
"[[[",
"..."};
