/* XPM */
static char * bottom_left_inactive_xpm[] = {
"2 2 3 1",
" 	c None",
".	c #85827E",
"+	c #F4F4F3",
".+",
".."};
