/* XPM */
static char * close_active_xpm[] = {
"20 24 48 1",
" 	c None",
".	c #2E2E2E",
"+	c #949494",
"@	c #828282",
"#	c #747474",
"$	c #717171",
"%	c #818181",
"&	c #727272",
"*	c #656565",
"=	c #353535",
"-	c #636363",
";	c #787878",
">	c #6E6E6E",
",	c #858585",
"'	c #848484",
")	c #6F6F6F",
"!	c #444444",
"~	c #474747",
"{	c #6C6C6C",
"]	c #5E5E5E",
"^	c #979797",
"/	c #707070",
"(	c #A5A4A4",
"_	c #FAF5F5",
":	c #4D4D4D",
"<	c #6B6B6B",
"[	c #7F7F7F",
"}	c #484848",
"|	c #4C4C4C",
"1	c #7E7E7E",
"2	c #696969",
"3	c #737373",
"4	c #7C7C7C",
"5	c #686868",
"6	c #767676",
"7	c #626262",
"8	c #777777",
"9	c #999999",
"0	c #606060",
"a	c #797979",
"b	c #5F5F5F",
"c	c #8D8D8D",
"d	c #7A7A7A",
"e	c #7B7B7B",
"f	c #6A6A6A",
"g	c #595959",
"h	c #676767",
"i	c #6D6D6D",
"....................",
"++++++++++++++++++++",
"@@#$$$$$$$$$$$$$$#@@",
"%&*==============*&%",
"&-=;++++++++++++;=-&",
">=#,,,,,,,,,,,,,,-=>",
">=,''''''''''''''#=>",
")=,@@@!~{@@{~]^@@#=)",
"/=,%%!(_:<<:__]%%#=/",
"$=,[[}___|:___}[[#=$",
"&=,112:______:211#=&",
"3=,4445|____:5444#=3",
"#=,###-:____|-####=#",
"6=,&&7:______:7&&#=6",
"8=,//}___:|___}//#=8",
";=,))!9_:00:__]))#=;",
"a=,>>>!~b>>b~]c>>#=a",
"d=,{{{{{{{{{{{{{{#=d",
"e=#ffffffffffffff-=e",
"6d=ghhhhhhhhhhhhg=d6",
"i#;==============;#i",
"{{d[[[[[[[[[[[[[[d{{",
"<<<<<<<<<<<<<<<<<<<<",
"!!!!!!!!!!!!!!!!!!!!"};
