/* XPM */
static char * close_pressed_xpm[] = {
"20 24 54 1",
" 	c None",
".	c #2E2E2E",
"+	c #949494",
"@	c #828282",
"#	c #818181",
"$	c #808080",
"%	c #636363",
"&	c #989898",
"*	c #7F7F7F",
"=	c #5B5B5B",
"-	c #6C6C6C",
";	c #7E7E7E",
">	c #6B6B6B",
",	c #959595",
"'	c #7D7D7D",
")	c #6A6A6A",
"!	c #444444",
"~	c #474747",
"{	c #5C5C5C",
"]	c #5E5E5E",
"^	c #8B8B8B",
"/	c #929292",
"(	c #7C7C7C",
"_	c #999999",
":	c #FAF5F5",
"<	c #4D4D4D",
"[	c #909090",
"}	c #7B7B7B",
"|	c #696969",
"1	c #484848",
"2	c #4C4C4C",
"3	c #8D8D8D",
"4	c #7A7A7A",
"5	c #686868",
"6	c #8A8A8A",
"7	c #797979",
"8	c #888888",
"9	c #747474",
"0	c #676767",
"a	c #5A5A5A",
"b	c #858585",
"c	c #737373",
"d	c #666666",
"e	c #838383",
"f	c #727272",
"g	c #717171",
"h	c #656565",
"i	c #707070",
"j	c #646464",
"k	c #595959",
"l	c #6F6F6F",
"m	c #6E6E6E",
"n	c #767676",
"o	c #6D6D6D",
"....................",
"++++++++++++++++++++",
"@@@@@@@@@@@@@@@@@@@@",
"###..............###",
"$$.%%%%%%%%%%%%%%.&$",
"*.=---------------.&",
";.=>>>>>>>>>>>>>>>.,",
"'.=)))!~{)){~]^)))./",
"(.=))!_:<{{<::]))).[",
"}.=||1:::2<:::1|||.3",
"4.=55=<::::::<=555.6",
"7.=555=2::::<=5555.8",
"9.=000a<::::2a0000.b",
"c.=dda<::::::<addd.e",
"f.=dd1:::<2:::1ddd.$",
"g.=hh!&:<aa<::]hhh.;",
"i.=jjj!~kjjk~]8jjj.}",
"l.=jjjjjjjjjjjjjjj.7",
"m.=%%%%%%%%%%%%%%%.n",
"oo.%%%%%%%%%%%%%%.no",
"oo9..............9oo",
"---99999999999999---",
">>>>>>>>>>>>>>>>>>>>",
"!!!!!!!!!!!!!!!!!!!!"};
