/* XPM */
static char * hide_pressed_xpm[] = {
"20 24 44 1",
" 	c None",
".	c #2E2E2E",
"+	c #949494",
"@	c #828282",
"#	c #818181",
"$	c #808080",
"%	c #636363",
"&	c #989898",
"*	c #7F7F7F",
"=	c #5B5B5B",
"-	c #6C6C6C",
";	c #7E7E7E",
">	c #6B6B6B",
",	c #959595",
"'	c #7D7D7D",
")	c #6A6A6A",
"!	c #929292",
"~	c #7C7C7C",
"{	c #909090",
"]	c #7B7B7B",
"^	c #696969",
"/	c #8D8D8D",
"(	c #7A7A7A",
"_	c #686868",
":	c #8A8A8A",
"<	c #797979",
"[	c #888888",
"}	c #747474",
"|	c #676767",
"1	c #858585",
"2	c #737373",
"3	c #666666",
"4	c #444444",
"5	c #838383",
"6	c #727272",
"7	c #FAF5F5",
"8	c #717171",
"9	c #656565",
"0	c #707070",
"a	c #646464",
"b	c #6F6F6F",
"c	c #6E6E6E",
"d	c #767676",
"e	c #6D6D6D",
"....................",
"++++++++++++++++++++",
"@@@@@@@@@@@@@@@@@@@@",
"###..............###",
"$$.%%%%%%%%%%%%%%.&$",
"*.=---------------.&",
";.=>>>>>>>>>>>>>>>.,",
"'.=))))))))))))))).!",
"~.=))))))))))))))).{",
"].=^^^^^^^^^^^^^^^./",
"(.=_______________.:",
"<.=_______________.[",
"}.=|||||||||||||||.1",
"2.=334444444444333.5",
"6.=334777777774333.$",
"8.=994777777774999.;",
"0.=aa4444444444aaa.]",
"b.=aaaaaaaaaaaaaaa.<",
"c.=%%%%%%%%%%%%%%%.d",
"ee.%%%%%%%%%%%%%%.de",
"ee}..............}ee",
"---}}}}}}}}}}}}}}---",
">>>>>>>>>>>>>>>>>>>>",
"44444444444444444444"};
