/* XPM */
static char * maximize_toggled_pressed_xpm[] = {
"20 24 42 1",
" 	c None",
".	c #2E2E2E",
"+	c #828282",
"@	c #818181",
"#	c #808080",
"$	c #636363",
"%	c #989898",
"&	c #7E7E7E",
"*	c #5B5B5B",
"=	c #6C6C6C",
"-	c #7D7D7D",
";	c #6B6B6B",
">	c #959595",
",	c #6A6A6A",
"'	c #929292",
")	c #7C7C7C",
"!	c #444444",
"~	c #909090",
"{	c #7B7B7B",
"]	c #696969",
"^	c #FAF5F5",
"/	c #8D8D8D",
"(	c #7A7A7A",
"_	c #686868",
":	c #8A8A8A",
"<	c #797979",
"[	c #888888",
"}	c #747474",
"|	c #676767",
"1	c #858585",
"2	c #737373",
"3	c #666666",
"4	c #838383",
"5	c #727272",
"6	c #717171",
"7	c #656565",
"8	c #707070",
"9	c #646464",
"0	c #6F6F6F",
"a	c #6E6E6E",
"b	c #767676",
"c	c #6D6D6D",
"....................",
"++++++++++++++++++++",
"@@@@@@@@@@@@@@@@@@@@",
"###..............###",
"##.$$$$$$$$$$$$$$.%#",
"&.*===============.%",
"-.*;;;;;;;;;;;;;;;.>",
"-.*,,,,,,,,,,,,,,,.'",
").*,,,!!!!!!!!,,,,.~",
"{.*]]]!^^^^^^!]]]]./",
"(.*___!^^^^^^!____.:",
"<.*___!^!!!!^!____.[",
"}.*|||!^!||!^!||||.1",
"2.*333!^!!!!^!3333.4",
"5.*333!^^^^^^!3333.#",
"6.*777!!!!!!!!7777.&",
"8.*999999999999999.{",
"0.*999999999999999.<",
"a.*$$$$$$$$$$$$$$$.b",
"cc.$$$$$$$$$$$$$$.bc",
"cc}..............}cc",
"===}}}}}}}}}}}}}}===",
";;;;;;;;;;;;;;;;;;;;",
"!!!!!!!!!!!!!!!!!!!!"};
