/* XPM */
static char * maximize_toggled_active_xpm[] = {
"20 24 35 1",
" 	c None",
".	c #2E2E2E",
"+	c #828282",
"@	c #818181",
"#	c #747474",
"$	c #717171",
"%	c #808080",
"&	c #727272",
"*	c #656565",
"=	c #353535",
"-	c #636363",
";	c #787878",
">	c #949494",
",	c #6E6E6E",
"'	c #858585",
")	c #848484",
"!	c #6F6F6F",
"~	c #707070",
"{	c #444444",
"]	c #7F7F7F",
"^	c #FAF5F5",
"/	c #7E7E7E",
"(	c #737373",
"_	c #7C7C7C",
":	c #767676",
"<	c #777777",
"[	c #797979",
"}	c #7A7A7A",
"|	c #6C6C6C",
"1	c #7B7B7B",
"2	c #6A6A6A",
"3	c #595959",
"4	c #676767",
"5	c #6D6D6D",
"6	c #6B6B6B",
"....................",
"++++++++++++++++++++",
"@@#$$$$$$$$$$$$$$#@@",
"%&*==============*&%",
"&-=;>>>>>>>>>>>>;=-&",
",=#''''''''''''''-=,",
",='))))))))))))))#=,",
"!='++++++++++++++#=!",
"~='@@@{{{{{{{{@@@#=~",
"$=']]]{^^^^^^{]]]#=$",
"&='///{^^^^^^{///#=&",
"(='___{^{{{{^{___#=(",
"#='###{^{##{^{####=#",
":='&&&{^{{{{^{&&&#=:",
"<='~~~{^^^^^^{~~~#=<",
";='!!!{{{{{{{{!!!#=;",
"[=',,,,,,,,,,,,,,#=[",
"}='||||||||||||||#=}",
"1=#22222222222222-=1",
":}=34444444444443=}:",
"5#;==============;#5",
"||}]]]]]]]]]]]]]]}||",
"66666666666666666666",
"{{{{{{{{{{{{{{{{{{{{"};
