/* XPM */
static char * maximize_active_xpm[] = {
"20 24 34 1",
" 	c None",
".	c #2E2E2E",
"+	c #949494",
"@	c #828282",
"#	c #747474",
"$	c #717171",
"%	c #818181",
"&	c #727272",
"*	c #656565",
"=	c #353535",
"-	c #636363",
";	c #787878",
">	c #6E6E6E",
",	c #858585",
"'	c #848484",
")	c #6F6F6F",
"!	c #444444",
"~	c #707070",
"{	c #FAF5F5",
"]	c #7F7F7F",
"^	c #7E7E7E",
"/	c #737373",
"(	c #7C7C7C",
"_	c #767676",
":	c #777777",
"<	c #797979",
"[	c #7A7A7A",
"}	c #6C6C6C",
"|	c #7B7B7B",
"1	c #6A6A6A",
"2	c #595959",
"3	c #676767",
"4	c #6D6D6D",
"5	c #6B6B6B",
"....................",
"++++++++++++++++++++",
"@@#$$$$$$$$$$$$$$#@@",
"%&*==============*&%",
"&-=;++++++++++++;=-&",
">=#,,,,,,,,,,,,,,-=>",
">=,''''''''''''''#=>",
")=,@@!!!!!!!!!!@@#=)",
"~=,%%!{{{{{{{{!%%#=~",
"$=,]]!{{{{{{{{!]]#=$",
"&=,^^!{!!!!!!{!^^#=&",
"/=,((!{!((((!{!((#=/",
"#=,##!{!####!{!###=#",
"_=,&&!{!&&&&!{!&&#=_",
":=,~~!{!!!!!!{!~~#=:",
";=,))!{{{{{{{{!))#=;",
"<=,>>!!!!!!!!!!>>#=<",
"[=,}}}}}}}}}}}}}}#=[",
"|=#11111111111111-=|",
"_[=23333333333332=[_",
"4#;==============;#4",
"}}[]]]]]]]]]]]]]][}}",
"55555555555555555555",
"!!!!!!!!!!!!!!!!!!!!"};
