/* XPM */
static char * maximize_pressed_xpm[] = {
"20 24 44 1",
" 	c None",
".	c #2E2E2E",
"+	c #949494",
"@	c #828282",
"#	c #818181",
"$	c #808080",
"%	c #636363",
"&	c #989898",
"*	c #7F7F7F",
"=	c #5B5B5B",
"-	c #6C6C6C",
";	c #7E7E7E",
">	c #6B6B6B",
",	c #959595",
"'	c #7D7D7D",
")	c #6A6A6A",
"!	c #444444",
"~	c #929292",
"{	c #7C7C7C",
"]	c #FAF5F5",
"^	c #909090",
"/	c #7B7B7B",
"(	c #696969",
"_	c #8D8D8D",
":	c #7A7A7A",
"<	c #686868",
"[	c #8A8A8A",
"}	c #797979",
"|	c #888888",
"1	c #747474",
"2	c #676767",
"3	c #858585",
"4	c #737373",
"5	c #666666",
"6	c #838383",
"7	c #727272",
"8	c #717171",
"9	c #656565",
"0	c #707070",
"a	c #646464",
"b	c #6F6F6F",
"c	c #6E6E6E",
"d	c #767676",
"e	c #6D6D6D",
"....................",
"++++++++++++++++++++",
"@@@@@@@@@@@@@@@@@@@@",
"###..............###",
"$$.%%%%%%%%%%%%%%.&$",
"*.=---------------.&",
";.=>>>>>>>>>>>>>>>.,",
"'.=))!!!!!!!!!!))).~",
"{.=))!]]]]]]]]!))).^",
"/.=((!]]]]]]]]!(((._",
":.=<<!]!!!!!!]!<<<.[",
"}.=<<!]!<<<<!]!<<<.|",
"1.=22!]!2222!]!222.3",
"4.=55!]!5555!]!555.6",
"7.=55!]!!!!!!]!555.$",
"8.=99!]]]]]]]]!999.;",
"0.=aa!!!!!!!!!!aaa./",
"b.=aaaaaaaaaaaaaaa.}",
"c.=%%%%%%%%%%%%%%%.d",
"ee.%%%%%%%%%%%%%%.de",
"ee1..............1ee",
"---11111111111111---",
">>>>>>>>>>>>>>>>>>>>",
"!!!!!!!!!!!!!!!!!!!!"};
