/* XPM */
static char * title_4_active_xpm[] = {
"5 24 24 1",
" 	c None",
".	c #2E2E2E",
"+	c #949494",
"@	c #828282",
"#	c #818181",
"$	c #808080",
"%	c #7F7F7F",
"&	c #7E7E7E",
"*	c #7D7D7D",
"=	c #7C7C7C",
"-	c #7B7B7B",
";	c #7A7A7A",
">	c #797979",
",	c #747474",
"'	c #737373",
")	c #727272",
"!	c #717171",
"~	c #707070",
"{	c #6F6F6F",
"]	c #6E6E6E",
"^	c #6D6D6D",
"/	c #6C6C6C",
"(	c #6B6B6B",
"_	c #444444",
".....",
"+++++",
"@@@@@",
"#####",
"$$$$$",
"%%%%%",
"&&&&&",
"*****",
"=====",
"-----",
";;;;;",
">>>>>",
",,,,,",
"'''''",
")))))",
"!!!!!",
"~~~~~",
"{{{{{",
"]]]]]",
"^^^^^",
"^^^^^",
"/////",
"(((((",
"_____"};
